<svg width="auto" height="auto" viewBox="0 0 20 20" fill="none" xmlns="http://www.w3.org/2000/svg">
    <path d="M18 6V14C18 15.6875 16.6562 17 15 17H12.75C12.3125 17 12 16.6875 12 16.25C12 15.8438 12.3125 15.5 12.75 15.5H15C15.8125 15.5 16.5 14.8438 16.5 14V6C16.5 5.1875 15.8125 4.5 15 4.5H12.75C12.3125 4.5 12 4.1875 12 3.75C12 3.34375 12.3125 3 12.75 3H15C16.6562 3 18 4.34375 18 6ZM12.7812 9.5L8.78125 5.25C8.5 4.9375 8.03125 4.9375 7.71875 5.21875C7.40625 5.5 7.40625 5.96875 7.6875 6.28125L10.5 9.25H2.75C2.3125 9.25 2 9.59375 2 10C2 10.4375 2.3125 10.75 2.75 10.75H10.5L7.6875 13.75C7.40625 14.0625 7.40625 14.5312 7.71875 14.8125C7.875 14.9375 8.0625 15 8.25 15C8.4375 15 8.625 14.9375 8.78125 14.7812L12.7812 10.5312C13.0625 10.25 13.0625 9.78125 12.7812 9.5Z" fill="currentColor"/>
</svg>
