<svg width="auto" height="auto" viewBox="0 0 20 20" fill="none" xmlns="http://www.w3.org/2000/svg">
    <path d="M2 6V14C2 15.6875 3.34375 17 5 17H7.25C7.6875 17 8 16.6875 8 16.25C8 15.8438 7.6875 15.5 7.25 15.5H5C4.1875 15.5 3.5 14.8438 3.5 14V6C3.5 5.1875 4.1875 4.5 5 4.5H7.25C7.6875 4.5 8 4.1875 8 3.75C8 3.34375 7.6875 3 7.25 3H5C3.34375 3 2 4.34375 2 6ZM17.7812 9.5L13.7812 5.25C13.5 4.9375 13.0312 4.9375 12.7188 5.21875C12.4062 5.5 12.4062 5.96875 12.6875 6.28125L15.5 9.25H7.75C7.3125 9.25 7 9.59375 7 10C7 10.4375 7.3125 10.75 7.75 10.75H15.5L12.6875 13.75C12.4062 14.0625 12.4062 14.5312 12.7188 14.8125C12.875 14.9375 13.0625 15 13.25 15C13.4375 15 13.625 14.9375 13.7812 14.7812L17.7812 10.5312C18.0625 10.25 18.0625 9.78125 17.7812 9.5Z" fill="currentColor"/>
</svg>
