<svg width="auto" height="auto" viewBox="0 0 12 12" fill="none" xmlns="http://www.w3.org/2000/svg">
    <g filter="url(#filter0_d_9492_18605)">
        <path d="M6 1L7.16469 1.65333L8.5 1.66987L9.18198 2.81802L10.3301 3.5L10.3467 4.83531L11 6L10.3467 7.16469L10.3301 8.5L9.18198 9.18198L8.5 10.3301L7.16469 10.3467L6 11L4.83531 10.3467L3.5 10.3301L2.81802 9.18198L1.66987 8.5L1.65333 7.16469L1 6L1.65333 4.83531L1.66987 3.5L2.81802 2.81802L3.5 1.66987L4.83531 1.65333L6 1Z" fill="#060606"/>
    </g>
    <path fill-rule="evenodd" clip-rule="evenodd" d="M7.16469 1.65333L6 1L4.83531 1.65333L3.5 1.66987L2.81802 2.81802L1.66987 3.5L1.65333 4.83531L1 6L1.65333 7.16469L1.66987 8.5L2.81802 9.18198L3.5 10.3301L4.83531 10.3467L6 11L7.16469 10.3467L8.5 10.3301L9.18198 9.18198L10.3301 8.5L10.3467 7.16469L11 6L10.3467 4.83531L10.3301 3.5L9.18198 2.81802L8.5 1.66987L7.16469 1.65333ZM3.5 6.12512L5.375 8.00012L8.5 4.87512L7.875 4.25012L5.375 6.75012L4.125 5.50012L3.5 6.12512Z" fill="url(#paint0_linear_9492_18605)"/>
    <defs>
        <filter id="filter0_d_9492_18605" x="0" y="0" width="12" height="12" filterUnits="userSpaceOnUse" color-interpolation-filters="sRGB">
            <feFlood flood-opacity="0" result="BackgroundImageFix"/>
            <feColorMatrix in="SourceAlpha" type="matrix" values="0 0 0 0 0 0 0 0 0 0 0 0 0 0 0 0 0 0 127 0" result="hardAlpha"/>
            <feOffset/>
            <feGaussianBlur stdDeviation="0.5"/>
            <feComposite in2="hardAlpha" operator="out"/>
            <feColorMatrix type="matrix" values="0 0 0 0 0 0 0 0 0 0 0 0 0 0 0 0 0 0 0.3 0"/>
            <feBlend mode="normal" in2="BackgroundImageFix" result="effect1_dropShadow_9492_18605"/>
            <feBlend mode="normal" in="SourceGraphic" in2="effect1_dropShadow_9492_18605" result="shape"/>
        </filter>
        <linearGradient id="paint0_linear_9492_18605" x1="1" y1="1" x2="11.8124" y2="1.97312" gradientUnits="userSpaceOnUse">
            <stop stop-color="#26EDED"/>
            <stop offset="1" stop-color="#14EFAC"/>
        </linearGradient>
    </defs>
</svg>
